<?xml version="1.0" encoding="utf-8"?>
<!-- Generator: Adobe Illustrator 20.0.0, SVG Export Plug-In . SVG Version: 6.00 Build 0)  -->
<svg version="1.1" id="Layer_1" xmlns="http://www.w3.org/2000/svg" xmlns:xlink="http://www.w3.org/1999/xlink" x="0px" y="0px"
	 viewBox="0 0 22.5 18.3" style="enable-background:new 0 0 22.5 18.3;" xml:space="preserve">
<style type="text/css">
	.st0{fill:#000;}
</style>
<g>
	<path class="st0" d="M22.5,2.2c-0.8,0.4-1.7,0.6-2.6,0.7c1-0.6,1.7-1.5,2-2.6C21,0.9,20,1.2,18.9,1.5c-0.8-0.9-2-1.5-3.4-1.5
		c-2.5,0-4.6,2.1-4.6,4.6c0,0.4,0,0.7,0.1,1.1c-3.8-0.2-7.2-2-9.5-4.8C1.2,1.5,0.9,2.3,0.9,3.2c0,1.6,0.8,3,2,3.8
		C2.2,7,1.5,6.8,0.9,6.4c0,0,0,0,0,0.1c0,2.2,1.6,4.1,3.7,4.5c-0.4,0.1-0.8,0.2-1.2,0.2c-0.3,0-0.6,0-0.9-0.1
		c0.6,1.8,2.3,3.2,4.3,3.2c-1.6,1.2-3.6,2-5.7,2c-0.4,0-0.7,0-1.1-0.1c2,1.3,4.5,2.1,7.1,2.1c8.5,0,13.1-7,13.1-13.1
		c0-0.2,0-0.4,0-0.6C21.1,3.9,21.8,3.1,22.5,2.2"/>
</g>
</svg>
