<?xml version="1.0" encoding="utf-8"?>
<!-- Generator: Adobe Illustrator 20.0.0, SVG Export Plug-In . SVG Version: 6.00 Build 0)  -->
<svg version="1.1" id="Layer_1" xmlns="http://www.w3.org/2000/svg" xmlns:xlink="http://www.w3.org/1999/xlink" x="0px" y="0px"
	 viewBox="0 0 21.3 21.3" style="enable-background:new 0 0 21.3 21.3;" xml:space="preserve">
<style type="text/css">
	.st0{clip-path:url(#SVGID_2_);fill:#000;}
</style>
<g>
	<defs>
		<rect id="SVGID_1_" y="0" width="21.3" height="21.3"/>
	</defs>
	<clipPath id="SVGID_2_">
		<use xlink:href="#SVGID_1_"  style="overflow:visible;"/>
	</clipPath>
	<path class="st0" d="M18.9,5.5c0,1-1,1-1,1h-2.1c-1,0-1-1-1-1V3.4c0-1,1-1,1-1h2.1c1,0,1,1,1,1V5.5z M14.7,10.7c0,2.2-1.8,4-4,4
		c-2.2,0-4-1.8-4-4c0-2.2,1.8-4,4-4C12.9,6.7,14.7,8.5,14.7,10.7 M4.3,10.7c0,3.5,2.9,6.4,6.4,6.4c3.5,0,6.4-2.9,6.4-6.4
		c0-0.6-0.1-1.3-0.3-1.8h2.1v9.4c0,0.6-0.5,0.7-0.7,0.7H3.1c-0.6,0-0.7-0.5-0.7-0.7V8.8h2.1C4.4,9.4,4.3,10,4.3,10.7 M21.3,18.3V3.1
		c0-1.2-0.8-3.1-3.1-3.1H3.1C1.8,0,0,0.8,0,3.1v15.2c0,1.2,0.8,3.1,3.1,3.1h15.2C19.5,21.3,21.3,20.5,21.3,18.3"/>
</g>
</svg>
